HIERARCHY
ROOT hip
{
  OFFSET 0.00112043 5.09927 -9.65472
  CHANNELS 6 Xposition Yposition Zposition Zrotation Xrotation Yrotation
  JOINT abdomen
  {
    OFFSET 0 -1.186 -1.5018
    CHANNELS 3 Zrotation Xrotation Yrotation
    JOINT abdomen2
    {
      OFFSET 0 9.964 0.2134
      CHANNELS 3 Zrotation Xrotation Yrotation
      JOINT chest
      {
        OFFSET 0 13.134 -3.2573
        CHANNELS 3 Zrotation Xrotation Yrotation
        JOINT neck
        {
          OFFSET 0 20.686 -1.6905
          CHANNELS 3 Zrotation Xrotation Yrotation
          JOINT head
          {
            OFFSET 0 7.238 -0.1237
            CHANNELS 3 Zrotation Xrotation Yrotation
            End Site
            {
              OFFSET 0 0 0
            }
          }
        }
        JOINT lCollar
        {
          OFFSET 1.7069 20.075 5.0056
          CHANNELS 3 Zrotation Xrotation Yrotation
          JOINT lShldr
          {
            OFFSET 13.6458 -0.047 -4.849
            CHANNELS 3 Zrotation Xrotation Yrotation
            JOINT lForeArm
            {
              OFFSET 28.3255 -0.9759 2.2888
              CHANNELS 3 Zrotation Xrotation Yrotation
              JOINT lHand
              {
                OFFSET 22.1583 -0.53 10.8316
                CHANNELS 3 Zrotation Xrotation Yrotation
                JOINT lThumb1
                {
                  OFFSET 0.786 0.112 2.5817
                  CHANNELS 3 Zrotation Xrotation Yrotation
                  JOINT lThumb2
                  {
                    OFFSET 0.3601 -0.878 4.2331
                    CHANNELS 3 Zrotation Xrotation Yrotation
                    JOINT lThumb2_End
                    {
                      OFFSET 1.8127 -1.216 2.2227
                      CHANNELS 3 Zrotation Xrotation Yrotation
                      End Site
                      {
                        OFFSET 0.0181 -0.0122 0.0222
                      }
                    }
                  }
                }
                JOINT lCarpal1
                {
                  OFFSET 0.9571 1.114 1.7695
                  CHANNELS 3 Zrotation Xrotation Yrotation
                  JOINT lIndex1
                  {
                    OFFSET 4.1246 0.487 4.1451
                    CHANNELS 3 Zrotation Xrotation Yrotation
                    JOINT lIndex2
                    {
                      OFFSET 3.4052 -1.454 2.7682
                      CHANNELS 3 Zrotation Xrotation Yrotation
                      JOINT lIndex2_End
                      {
                        OFFSET 1.4531 -1.795 1.2713
                        CHANNELS 3 Zrotation Xrotation Yrotation
                        End Site
                        {
                          OFFSET 0.0145 -0.0179 0.0127
                        }
                      }
                    }
                  }
                  JOINT lMid1
                  {
                    OFFSET 5.6954 0.21 2.1184
                    CHANNELS 3 Zrotation Xrotation Yrotation
                    JOINT lMid2
                    {
                      OFFSET 3.9766 -1.54 2.3863
                      CHANNELS 3 Zrotation Xrotation Yrotation
                      JOINT lMid2_End
                      {
                        OFFSET 1.4042 -1.926 1.125
                        CHANNELS 3 Zrotation Xrotation Yrotation
                        End Site
                        {
                          OFFSET 0.014 -0.0193 0.0113
                        }
                      }
                    }
                  }
                }
                JOINT lCarpal2
                {
                  OFFSET 2.0956 0.66 -0.3894
                  CHANNELS 3 Zrotation Xrotation Yrotation
                  JOINT lRing1
                  {
                    OFFSET 5.0395 -0.09 2.4971
                    CHANNELS 3 Zrotation Xrotation Yrotation
                    JOINT lRing2
                    {
                      OFFSET 3.7921 -1.552 1.4806
                      CHANNELS 3 Zrotation Xrotation Yrotation
                      JOINT lRing2_End
                      {
                        OFFSET 1.4655 -1.808 0.9609
                        CHANNELS 3 Zrotation Xrotation Yrotation
                        End Site
                        {
                          OFFSET 0.0147 -0.0181 0.0096
                        }
                      }
                    }
                  }
                  JOINT lPinky1
                  {
                    OFFSET 4.9141 -1.269 0.3591
                    CHANNELS 3 Zrotation Xrotation Yrotation
                    JOINT lPinky2
                    {
                      OFFSET 3.1477 -1.685 0.8462
                      CHANNELS 3 Zrotation Xrotation Yrotation
                      JOINT lPinky2_End
                      {
                        OFFSET 0.8055 -1.585 0.7955
                        CHANNELS 3 Zrotation Xrotation Yrotation
                        End Site
                        {
                          OFFSET 0.0081 -0.0158 0.008
                        }
                      }
                    }
                  }
                }
              }
            }
          }
        }
        JOINT rCollar
        {
          OFFSET -1.7069 20.075 5.0056
          CHANNELS 3 Zrotation Xrotation Yrotation
          JOINT rShldr
          {
            OFFSET -13.6458 -0.047 -4.849
            CHANNELS 3 Zrotation Xrotation Yrotation
            JOINT rForeArm
            {
              OFFSET -28.3255 -0.9759 2.2888
              CHANNELS 3 Zrotation Xrotation Yrotation
              JOINT rHand
              {
                OFFSET -22.1583 -0.53 10.8316
                CHANNELS 3 Zrotation Xrotation Yrotation
                JOINT rThumb1
                {
                  OFFSET -0.786 0.112 2.5817
                  CHANNELS 3 Zrotation Xrotation Yrotation
                  JOINT rThumb2
                  {
                    OFFSET -0.3601 -0.878 4.2331
                    CHANNELS 3 Zrotation Xrotation Yrotation
                    JOINT rThumb2_End
                    {
                      OFFSET -1.8127 -1.216 2.2227
                      CHANNELS 3 Zrotation Xrotation Yrotation
                      End Site
                      {
                        OFFSET -0.0181 -0.0122 0.0222
                      }
                    }
                  }
                }
                JOINT rCarpal1
                {
                  OFFSET -0.9571 1.114 1.7695
                  CHANNELS 3 Zrotation Xrotation Yrotation
                  JOINT rIndex1
                  {
                    OFFSET -4.1246 0.487 4.1451
                    CHANNELS 3 Zrotation Xrotation Yrotation
                    JOINT rIndex2
                    {
                      OFFSET -3.4052 -1.454 2.7682
                      CHANNELS 3 Zrotation Xrotation Yrotation
                      JOINT rIndex2_End
                      {
                        OFFSET -1.4531 -1.795 1.2713
                        CHANNELS 3 Zrotation Xrotation Yrotation
                        End Site
                        {
                          OFFSET -0.0145 -0.018 0.0127
                        }
                      }
                    }
                  }
                  JOINT rMid1
                  {
                    OFFSET -5.6954 0.21 2.1184
                    CHANNELS 3 Zrotation Xrotation Yrotation
                    JOINT rMid2
                    {
                      OFFSET -3.9766 -1.54 2.3863
                      CHANNELS 3 Zrotation Xrotation Yrotation
                      JOINT rMid2_End
                      {
                        OFFSET -1.4042 -1.926 1.125
                        CHANNELS 3 Zrotation Xrotation Yrotation
                        End Site
                        {
                          OFFSET -0.014 -0.0193 0.0113
                        }
                      }
                    }
                  }
                }
                JOINT rCarpal2
                {
                  OFFSET -2.0956 0.66 -0.3894
                  CHANNELS 3 Zrotation Xrotation Yrotation
                  JOINT rRing1
                  {
                    OFFSET -5.0395 -0.09 2.4971
                    CHANNELS 3 Zrotation Xrotation Yrotation
                    JOINT rRing2
                    {
                      OFFSET -3.7921 -1.552 1.4806
                      CHANNELS 3 Zrotation Xrotation Yrotation
                      JOINT rRing2_End
                      {
                        OFFSET -1.4655 -1.808 0.9609
                        CHANNELS 3 Zrotation Xrotation Yrotation
                        End Site
                        {
                          OFFSET -0.0147 -0.0181 0.0096
                        }
                      }
                    }
                  }
                  JOINT rPinky1
                  {
                    OFFSET -4.9141 -1.269 0.3592
                    CHANNELS 3 Zrotation Xrotation Yrotation
                    JOINT rPinky2
                    {
                      OFFSET -3.1477 -1.685 0.8462
                      CHANNELS 3 Zrotation Xrotation Yrotation
                      JOINT rPinky2_End
                      {
                        OFFSET -0.8055 -1.585 0.7955
                        CHANNELS 3 Zrotation Xrotation Yrotation
                        End Site
                        {
                          OFFSET -0.0081 -0.0158 0.008
                        }
                      }
                    }
                  }
                }
              }
            }
          }
        }
      }
    }
  }
  JOINT lThigh
  {
    OFFSET 8.367 -8.2066 0.5982
    CHANNELS 3 Zrotation Xrotation Yrotation
    JOINT lShin
    {
      OFFSET 2.1923 -43.463 -0.4932
      CHANNELS 3 Zrotation Xrotation Yrotation
      JOINT lFoot
      {
        OFFSET 0.7333 -45.8593 -2.6451
        CHANNELS 3 Zrotation Xrotation Yrotation
        End Site
        {
          OFFSET 2.6618 -4.2699 12.3931
        }
      }
    }
  }
  JOINT rThigh
  {
    OFFSET -8.367 -8.2066 0.5982
    CHANNELS 3 Zrotation Xrotation Yrotation
    JOINT rShin
    {
      OFFSET -2.1923 -43.463 -0.4931
      CHANNELS 3 Zrotation Xrotation Yrotation
      JOINT rFoot
      {
        OFFSET -0.7333 -45.8593 -2.6451
        CHANNELS 3 Zrotation Xrotation Yrotation
        End Site
        {
          OFFSET -2.6618 -4.2699 12.3931
        }
      }
    }
  }
}
MOTION
Frames:	4
Frame Time:	0.0333333
0.0338965 18.9014 57.2533 -0.00886773 -71.0095 179.991 0.028784 -2.49676 0.0462659 0.0596733 -4.99349 0.0939225 0.0596733 -4.99347 0.0939226 1.79927e-006 -1.74399 8.49626e-007 -0.0512736 2.05665 -0.00917401 28.5332 29.7799 -30.0901 -128.02 -68.4498 -137.727 -33.7027 0.601099 -70.2454 5.32688 20.61 -34.5032 -1.05856e-006 1.5035e-006 -1.66182e-006 -1.59028e-015 1.59028e-015 -0 1.05856e-006 -1.5035e-006 1.66182e-006 6.36111e-015 -4.77083e-015 -3.18055e-015 -1.05856e-006 1.5035e-006 -1.66182e-006 -3.18055e-015 -6.36111e-015 -0 1.05856e-006 -1.5035e-006 1.66182e-006 -1.05856e-006 1.5035e-006 -1.66182e-006 -3.18055e-015 -6.36111e-015 -0 1.05856e-006 -1.5035e-006 1.66182e-006 6.36111e-015 -4.77083e-015 -3.18055e-015 -1.05856e-006 1.5035e-006 -1.66182e-006 -3.18055e-015 -6.36111e-015 -0 1.05856e-006 -1.5035e-006 1.66182e-006 -1.05856e-006 1.5035e-006 -1.66182e-006 -3.18055e-015 -6.36111e-015 -0 1.05856e-006 -1.5035e-006 1.66182e-006 -28.3213 29.8332 29.9796 127.634 -68.3215 138.115 33.0787 -1.4005 69.2481 -5.18807 19.6925 34.9608 7.50316e-007 -1.11218e-006 2.9332e-006 -5.61093e-007 1.4666e-006 5.56091e-007 1.28483e-006 2.2584e-006 -4.17811e-006 -2.38542e-015 -3.18055e-015 3.18055e-015 7.50316e-007 -1.11218e-006 2.9332e-006 -5.61093e-007 1.4666e-006 5.56091e-007 1.28483e-006 2.2584e-006 -4.17811e-006 7.50316e-007 -1.11218e-006 2.9332e-006 -5.61093e-007 1.4666e-006 5.56091e-007 1.28483e-006 2.2584e-006 -4.17811e-006 -2.38542e-015 -3.18055e-015 3.18055e-015 7.50316e-007 -1.11218e-006 2.9332e-006 -5.61093e-007 1.4666e-006 5.56091e-007 1.28483e-006 2.2584e-006 -4.17811e-006 7.50316e-007 -1.11218e-006 2.9332e-006 -5.61093e-007 1.4666e-006 5.56091e-007 1.28483e-006 2.2584e-006 -4.17811e-006 120.825 -56.8057 108.992 -177.117 50.6243 -173.964 10.9367 25.9426 3.86953 -124.724 -60.0543 -112.675 177.173 50.6129 173.84 -10.99 25.6986 -3.90349 
0.0337503 18.887 57.3827 -0.00886773 -71.0095 179.991 0.0292557 -2.47931 0.0463728 0.0606073 -4.95857 0.0941464 0.0606073 -4.95855 0.0941464 1.13438e-006 -2.23457 9.21055e-007 -0.0513389 1.65683 -0.00912484 28.821 29.2244 -29.8307 -128.555 -68.5662 -138.133 -33.7049 0.319362 -70.0018 5.02427 20.2717 -34.2828 9.54166e-015 -1.59028e-015 9.54166e-015 -4.77083e-015 0 6.36111e-015 1.59028e-015 -3.18055e-015 6.36111e-015 9.54166e-015 0 9.54166e-015 -3.53113e-031 1.59028e-015 1.27222e-014 1.59028e-015 0 -3.18055e-015 3.18055e-015 -1.59028e-015 9.54166e-015 -3.53113e-031 1.59028e-015 1.27222e-014 1.59028e-015 0 -3.18055e-015 3.18055e-015 -1.59028e-015 9.54166e-015 9.54166e-015 0 9.54166e-015 -3.53113e-031 1.59028e-015 1.27222e-014 1.59028e-015 0 -3.18055e-015 3.18055e-015 -1.59028e-015 9.54166e-015 -3.53113e-031 1.59028e-015 1.27222e-014 1.59028e-015 0 -3.18055e-015 3.18055e-015 -1.59028e-015 9.54166e-015 -28.618 29.2764 29.7231 128.158 -68.4366 138.509 33.0708 -1.67921 69.0031 -4.99523 19.3348 34.6965 -1.1241e-006 2.93275e-006 1.11401e-006 6.9896e-006 -6.84552e-007 -2.60694e-006 2.3707e-006 2.59048e-006 -1.89463e-007 3.97569e-015 -8.74653e-015 3.18055e-015 -1.1241e-006 2.93275e-006 1.11401e-006 6.9896e-006 -6.84552e-007 -2.60694e-006 2.3707e-006 2.59048e-006 -1.89463e-007 -1.1241e-006 2.93275e-006 1.11401e-006 6.9896e-006 -6.84552e-007 -2.60694e-006 2.3707e-006 2.59048e-006 -1.89463e-007 3.97569e-015 -8.74653e-015 3.18055e-015 -1.1241e-006 2.93275e-006 1.11401e-006 6.9896e-006 -6.84552e-007 -2.60694e-006 2.3707e-006 2.59048e-006 -1.89463e-007 -1.1241e-006 2.93275e-006 1.11401e-006 6.9896e-006 -6.84552e-007 -2.60694e-006 2.3707e-006 2.59048e-006 -1.89463e-007 121.511 -56.8 109.672 -177.118 50.6232 -173.955 10.9422 25.9444 3.87299 -125.405 -59.9659 -113.348 177.174 50.612 173.832 -10.9949 25.7043 -3.90607 
0.0335752 18.8723 57.5123 -0.00886773 -71.0095 179.991 0.0297214 -2.46181 0.046475 0.061529 -4.92363 0.0943605 0.061529 -4.9236 0.0943604 7.31598e-006 -2.72424 1.38667e-006 -0.0514036 1.25697 -0.0090805 29.1103 28.6699 -29.5694 -129.096 -68.6812 -138.545 -33.706 0.0370746 -69.7588 4.72364 19.9323 -34.0647 4.77083e-015 7.95139e-015 -3.18055e-015 1.59028e-015 -1.59028e-015 -3.18055e-015 3.18055e-015 0 3.18055e-015 -1.59028e-015 6.36111e-015 -3.18055e-015 -9.54166e-015 1.74931e-014 9.54166e-015 -1.59028e-015 3.18055e-015 -3.18055e-015 6.36111e-015 3.18055e-015 -3.18055e-015 -9.54166e-015 1.74931e-014 9.54166e-015 -1.59028e-015 3.18055e-015 -3.18055e-015 6.36111e-015 3.18055e-015 -3.18055e-015 -1.59028e-015 6.36111e-015 -3.18055e-015 -9.54166e-015 1.74931e-014 9.54166e-015 -1.59028e-015 3.18055e-015 -3.18055e-015 6.36111e-015 3.18055e-015 -3.18055e-015 -9.54166e-015 1.74931e-014 9.54166e-015 -1.59028e-015 3.18055e-015 -3.18055e-015 6.36111e-015 3.18055e-015 -3.18055e-015 -28.9161 28.7206 29.4646 128.686 -68.5503 138.908 33.0617 -1.9585 68.7585 -4.80453 18.9761 34.434 3.18055e-015 -3.18055e-015 -6.36111e-015 2.18526e-006 -2.59128e-006 2.87005e-006 5.56597e-015 3.97569e-015 -3.18055e-015 -8.82781e-032 -1.59028e-015 -3.18055e-015 -2.38542e-015 7.95139e-016 6.36111e-015 2.18526e-006 -2.59128e-006 2.87005e-006 3.18055e-015 1.59028e-015 -0 -2.38542e-015 7.95139e-016 6.36111e-015 2.18526e-006 -2.59128e-006 2.87005e-006 3.18055e-015 1.59028e-015 -0 -8.82781e-032 -1.59028e-015 -3.18055e-015 -2.38542e-015 7.95139e-016 6.36111e-015 2.18526e-006 -2.59128e-006 2.87005e-006 3.18055e-015 1.59028e-015 -0 -2.38542e-015 7.95139e-016 6.36111e-015 2.18526e-006 -2.59128e-006 2.87005e-006 3.18055e-015 1.59028e-015 -0 122.197 -56.7899 110.351 -177.118 50.6219 -173.947 10.9475 25.9464 3.8764 -126.083 -59.8734 -114.017 177.175 50.611 173.825 -10.9997 25.7102 -3.90859 
0.0333717 18.8574 57.6423 -0.00886773 -71.0095 179.991 0.0301819 -2.44432 0.0465735 0.06244 -4.88862 0.0945664 0.06244 -4.88861 0.0945664 3.7668e-006 -3.21571 1.54213e-006 -0.0514675 0.857052 -0.00904043 29.401 28.1163 -29.3063 -129.641 -68.7948 -138.962 -33.7058 -0.244422 -69.515 4.425 19.5918 -33.8489 3.18055e-015 3.18055e-015 -0 2.96379e-006 -1.09602e-006 -7.48264e-007 3.18055e-015 -1.59028e-015 3.18055e-015 -0 0 6.36111e-015 -6.36111e-015 4.77083e-015 1.90833e-014 2.96379e-006 -1.09602e-006 -7.48264e-007 5.29669e-031 -4.77083e-015 6.36111e-015 -6.36111e-015 4.77083e-015 1.90833e-014 2.96379e-006 -1.09602e-006 -7.48264e-007 5.29669e-031 -4.77083e-015 6.36111e-015 -0 0 6.36111e-015 -6.36111e-015 4.77083e-015 1.90833e-014 2.96379e-006 -1.09602e-006 -7.48264e-007 5.29669e-031 -4.77083e-015 6.36111e-015 -6.36111e-015 4.77083e-015 1.90833e-014 2.96379e-006 -1.09602e-006 -7.48264e-007 5.29669e-031 -4.77083e-015 6.36111e-015 -29.2156 28.1657 29.2041 129.22 -68.6627 139.313 33.0514 -2.23692 68.5131 -4.61588 18.6165 34.1732 -3.49559e-006 3.38124e-007 1.29776e-006 5.86344e-006 2.25547e-006 -1.47725e-006 -4.05945e-006 1.80398e-006 1.8569e-006 2.38542e-015 1.59028e-015 6.36111e-015 -3.49559e-006 3.38124e-007 1.29776e-006 5.86344e-006 2.25547e-006 -1.47725e-006 -4.05945e-006 1.80398e-006 1.8569e-006 -3.49559e-006 3.38124e-007 1.29776e-006 5.86344e-006 2.25547e-006 -1.47725e-006 -4.05945e-006 1.80398e-006 1.8569e-006 2.38542e-015 1.59028e-015 6.36111e-015 -3.49559e-006 3.38124e-007 1.29776e-006 5.86344e-006 2.25547e-006 -1.47725e-006 -4.05945e-006 1.80398e-006 1.8569e-006 -3.49559e-006 3.38124e-007 1.29776e-006 5.86344e-006 2.25547e-006 -1.47725e-006 -4.05945e-006 1.80398e-006 1.8569e-006 122.883 -56.7753 111.031 -177.119 50.6206 -173.938 10.9528 25.9486 3.87974 -126.758 -59.7768 -114.683 177.175 50.6099 173.818 -11.0044 25.7164 -3.91109 
